<svg xmlns="http://www.w3.org/2000/svg">
    <symbol id="web" viewBox="0 0 35 35"> 
        <circle cx="12" cy="12" r="9" fill="none" stroke="black" stroke-width="0.5" stroke-linecap="round" stroke-linejoin="round"/>
        <path d="M14.5 3.2c2 2.6 2.8 6 2.8 8.8s-.9 6 -2.8 8.8" fill="none" stroke="black" stroke-width="0.5"/>
        <path d="M9.7 3.4c-2 2.6-2.8 6-2.8 8.8s.9 6 2.8 8.5" fill="none" stroke="black" stroke-width="0.5" stroke-linecap="round"/>
        <path d="M3.5 10.3c2.125-.716 5.1-1 7.7-1s5.008-.09 9.232 1.017" fill="none" stroke="black" stroke-width="0.5" stroke-linecap="round"/>
        <path d="M3.505 14.964c2.125-.716 5.1-1 7.7-1s5.008-.09 9.232 1.017" fill="none" stroke="black" stroke-width="0.5" stroke-linecap="round"/>
        <line x1="12" y1="3.5" x2="12" y2="20.7" stroke="black" stroke-width="0.5" stroke-linecap="round"/>     
    </symbol>

    <symbol id="desktop" viewBox="0 0 35 35">
        <path d="M3.5 8c0-.957.001-1.624.069-2.128.066-.49.186-.748.37-.933.185-.184.444-.304.933-.37C5.376 4.5 6.043 4.5 7 4.5h10c.957 0 1.624.001 2.128.069.49.066.748.186.933.37.184.185.305.444.37.933.068.504.069 1.171.069 2.128v8.5h-17zm.167 8.5c-.645 0-1.167.522-1.167 1.167 0 1.012.82 1.833 1.833 1.833h15.334c1.012 0 1.833-.82 1.833-1.833 0-.645-.522-1.167-1.167-1.167z" fill="none" stroke-width="0.5" stroke="#222" stroke-linecap="round" stroke-linejoin="round"/>
    </symbol>

    <symbol id="database" viewBox="0 0 90 90">
        <path d="M56 16v32c0 4.42-10.75 8-24 8S8 52.42 8 48V16c0-4.42 10.75-8 24-8s24 3.58 24 8z" fill="none" stroke-width="1" stroke="black"/>
        <path d="M56 16c0 4.42-10.75 8-24 8S8 20.42 8 16m48 16c0 4.42-10.75 8-24 8S8 36.42 8 32" fill="none" stroke-width="1" stroke="black"/>    
    </symbol>

    <symbol id="cloud" viewBox="0 0 35 35">
        <path d="M14.381 9.027a5.8 5.8 0 0 1 1.905-.321c.654 0 1.283.109 1.87.309m-11.04 2.594a4.4 4.4 0 0 0-.83-.08C3.919 11.53 2 13.426 2 15.765S3.919 20 6.286 20h10C19.442 20 22 17.472 22 14.353c0-2.472-1.607-4.573-3.845-5.338M7.116 11.609a5.6 5.6 0 0 1-.354-1.962C6.762 6.528 9.32 4 12.476 4c2.94 0 5.361 2.194 5.68 5.015m-11.04 2.594a4.3 4.3 0 0 1 1.55.634" fill="none" stroke="black" stroke-width="0.5" stroke-linecap="round" stroke-linejoin="round"/>    
    </symbol>

    <symbol id="arrow">
        <path d="m17 14.5-5 5-5-5" stroke-linejoin="round" fill="none"/>
    </symbol>

    <symbol id="html" viewBox="0 0 18 20">
        <path d="M14.435 6H5.812l.206 2h8.212c-.12 1.752-.484 5.464-.618 7.153l-4.613 1.298v.004l-.01.005-4.615-1.624L4.058 11H6.32l.16 2.063L8.993 14H9l2.51-.9.258-3.1h-7.81c-.038-.401-.524-5.608-.608-6h11.288c-.063.66-.127 1.338-.202 2M0 0l1.638 18.148L8.99 20l7.37-1.889L18 0z" fill-rule="evenodd"/>
    </symbol>

    <symbol id="css" viewBox="0 0 512 512">
        <path d="m483.111.501-42.59 461.314-184.524 49.684L71.47 461.815 28.889.501zM397.29 94.302H111.866l6.885 55.708h144.78l-7.7 3.205-132.07 55.006 4.38 54.453 127.69.414 68.438.217-4.381 72.606-64.058 18.035v-.057l-.525.146-61.864-15.617-3.754-45.07h-57.789l7.511 87.007 116.423 34.429v-.062l.21.062 115.799-33.802 15.021-172.761H255.509l.323-.14 135.83-58.071z"/>
    </symbol>

    <symbol id="javascript" viewBox="0 0 20 20">
        <path d="M15.328 18.432c-1.745 0-2.873-.832-3.423-1.92l1.53-.886c.403.658.926 1.141 1.853 1.141.778 0 1.275-.389 1.275-.926 0-.808-1.078-1.124-1.839-1.45-1.356-.577-2.256-1.302-2.256-2.833 0-1.409 1.074-2.483 2.753-2.483 1.194 0 2.054.416 2.671 1.503l-1.463.94c-.322-.577-.671-.805-1.208-.805-.551 0-.9.349-.9.805 0 .564.349.792 1.155 1.141 1.689.724 2.967 1.293 2.967 3.155 0 1.692-1.329 2.618-3.115 2.618M11 15.599c0 1.947-1.199 2.976-2.864 2.976-1.504 0-2.405-.575-2.848-1.575h-.026l1.529-1.069c.295.523.561.894 1.205.894.618 0 1.004-.313 1.004-1.252V9h2zM0 20h20V0H0z" fill-rule="evenodd"/>
    </symbol>

    <symbol id="php" viewBox="0 0 512 512">
        <path d="M171.844 204.374c-11.137-12.748-28.856-19.123-53.146-19.123H37.96L.5 377.99h41.984l9.96-51.241h35.963c15.869 0 28.923-1.663 39.173-5.003q15.37-4.996 27.945-16.767c7.037-6.467 12.725-13.599 17.087-21.4q6.532-11.696 9.278-25.812c4.443-22.848 1.09-40.643-10.046-53.393m-33.351 50.449c-2.903 14.917-8.492 25.563-16.775 31.941q-12.433 9.57-37.822 9.569H58.354l15.678-80.667H102.8q23.926 0 31.896 8.832c5.31 5.892 6.579 15.999 3.797 30.325m199.335-17.764-17.429 89.69h-42.317l16.572-85.278c1.884-9.702 1.193-16.32-2.084-19.847-3.272-3.529-10.242-5.296-20.9-5.296h-33.289l-21.458 110.421h-41.656l37.46-192.739h41.656l-9.959 51.241h37.111c23.346 0 39.452 4.077 48.317 12.218 8.866 8.146 11.519 21.344 7.976 39.59m161.726-32.685c-11.137-12.748-28.856-19.123-53.142-19.123h-80.738l-37.46 192.739h41.984l9.96-51.241h35.963c15.869 0 28.918-1.663 39.169-5.003q15.37-4.996 27.945-16.767c7.036-6.467 12.729-13.599 17.088-21.4q6.532-11.696 9.277-25.812c4.442-22.848 1.094-40.643-10.046-53.393m-33.348 50.449c-2.902 14.917-8.491 25.563-16.779 31.941-8.284 6.38-20.896 9.569-37.822 9.569h-25.537l15.678-80.667h28.765c15.952 0 26.581 2.943 31.899 8.832q7.964 8.837 3.796 30.325"/>
    </symbol>

    <symbol id="delphi" viewBox="0 0 512 512">
        <path d="m397.27 173.265-16.749 11.557a161 161 0 00-42.89-33.177L477.685 35.25 371.655.5l-93.948 133.242c-3.327-.307-6.683-.52-10.07-.621L349.44.724l-100.822.721-42.446 141.973a164 164 0 00-7.808 3.204L222.25 17.52l-83.19 33.014 10.46 129.669a153 153 0 00-3.752 3.915l-23.504-112.22-58.243 56.154 51.788 102.092a160 160 0 00-2.728 6.819l-52.903-76.2-24.712 57.857 68.385 57.68a161 161 0 00-.595 7.533l-64.452-48.002-4.489 56.684 71.07 28.122q.508 2.909 1.119 5.776l-66.333-18.301 14.526 48.353 61.555.361a165 165 0 001.833 4.045l-56.875 6.852 28.678 35.504 42.883-17.294a161 161 0 0024.099 26.77l5.203-10.673s8.735-12.997 50.222-14.447c19.401-.686 41.332 2.414 59.181 5.906L335.074 495.893s12.809-3.655 31.883-21.989c14.613-9.133 25.574-29.227 25.574-29.227s-26.211-47.739-43.22-76.104c-20.115-21.923-43.86-32.92-54.844-45.708-8.691-10.139-21.984-19.13-27.115-22.413l-2.706-4.85 164.113-36.817zm-247.667 66.686c-27.422 68.562 29.226 135.283 29.226 135.283l-23.771 8.19s-1.382-1.774-3.568-5.036l4.579-1.852-12.019-10.373c-13.563-24.435-32.611-71.72-13.682-121.638 27.483-72.173 107.88-90.47 107.88-90.47l9.154 2.749c0 .001-76.742 30.54-97.799 83.147m59.037 156.03c23.309 0 41.198 9.616 41.198 9.616s-32.903-2.184-51.947 1.808c-10.684 2.223-22.251 10.052-28.84 15.082-.7-.506-1.4-1.011-2.085-1.53l7.621-13.552c-.001 0 10.747-11.424 34.053-11.424"/>
    </symbol>

    <symbol id="visualstudio" viewBox="0 0 20 20">
        <path d="m10 9.989 4.759-3.475.002 6.977zm-7.617 2.106-.003-4.18 2.381 2.076zm17.616-10.23L15.234 0 6.915 7.911 1.907 4.187l-1.905.936L0 14.888l1.896.929 5.005-3.721L15.239 20 20 18.142z" fill-rule="evenodd"/>
    </symbol>

    <symbol id="mysql" viewBox="0 0 23 23">
        <path fill-rule="evenodd" d="M5.462 4.04a2.7 2.7 0 0 0-.67.074v.038h.037c.13.267.36.44.521.67l.372.781.038-.037c.23-.162.336-.422.335-.819-.093-.097-.107-.219-.187-.335-.106-.154-.312-.242-.446-.372m18.017 19.097c.175.129.293.329.521.41v-.038c-.12-.152-.15-.362-.26-.521q-.243-.24-.484-.484a8 8 0 0 0-1.713-1.638c-.508-.365-1.649-.859-1.861-1.451l-.038-.038c.361-.04.784-.171 1.117-.26.56-.15 1.06-.112 1.638-.26l.782-.224v-.15c-.292-.3-.5-.696-.819-.967-.834-.71-1.743-1.42-2.68-2.01-.52-.329-1.162-.541-1.713-.82-.185-.093-.51-.142-.632-.297-.29-.37-.447-.837-.67-1.266-.467-.9-.927-1.883-1.34-2.83-.283-.645-.467-1.281-.82-1.86-1.69-2.78-3.51-4.457-6.328-6.106-.6-.35-1.322-.489-2.084-.67l-1.229-.074c-.25-.105-.51-.41-.744-.559C3.188.434.792-.849.102.838c-.437 1.065.652 2.104 1.042 2.643.273.379.623.803.819 1.229.128.28.15.56.26.856.271.73.506 1.522.856 2.196.178.341.373.7.596 1.005.138.187.372.27.409.559-.23.321-.242.82-.371 1.228-.582 1.835-.363 4.115.484 5.473.259.416.87 1.31 1.711.967.736-.3.572-1.228.782-2.047.047-.186.019-.323.112-.447v.037l.67 1.34c.496.799 1.376 1.634 2.122 2.197.386.292.69.797 1.191.968v-.038h-.037c-.098-.15-.25-.213-.372-.335a8.6 8.6 0 0 1-.857-.968c-.678-.92-1.277-1.928-1.823-2.977-.261-.502-.488-1.054-.708-1.564-.085-.197-.084-.494-.26-.596-.241.374-.596.676-.782 1.117-.298.705-.337 1.565-.447 2.457-.065.023-.036.007-.075.037-.518-.125-.7-.659-.893-1.117-.487-1.157-.578-3.022-.149-4.355.111-.345.613-1.431.41-1.75-.098-.318-.417-.501-.596-.744A6 6 0 0 1 3.6 7.166c-.398-.902-.585-1.916-1.005-2.829-.2-.436-.54-.877-.819-1.265-.308-.43-.654-.746-.893-1.266-.085-.185-.201-.48-.075-.67.04-.128.097-.182.224-.223.216-.167.817.055 1.042.148.597.248 1.095.484 1.6.82.243.16.489.472.782.558h.335c.525.12 1.112.037 1.601.186.865.263 1.64.672 2.345 1.117 2.146 1.355 3.9 3.283 5.1 5.584.193.37.277.724.447 1.117.343.792.775 1.607 1.116 2.382.34.773.673 1.553 1.154 2.196.253.338 1.231.52 1.676.708.311.131.821.269 1.116.446.564.34 1.11.745 1.638 1.117.264.187 1.077.595 1.117.93-1.31-.034-2.31.087-3.164.448-.243.102-.63.105-.67.409.133.14.154.35.26.521.204.33.549.773.856 1.005.337.254.683.525 1.043.745.64.39 1.356.614 1.972 1.005.365.231.726.521 1.08.782"/>
    </symbol>

    <symbol id="mongodb" viewBox="0 2 30 30">
        <path d="M15.821 23.185s0-10.361.344-10.36c.266 0 .612 13.365.612 13.365-.476-.056-.956-2.199-.956-3.005m6.668-10.24c-.919-4.016-2.932-7.469-5.708-10.134l-.007-.006a10 10 0 0 1-.895-1.732l-.024-.068.001.068c0 .565-.253 1.07-.652 1.409l-.003.002c-3.574 3.034-5.848 7.505-5.923 12.508v.013l-.001.208a15.1 15.1 0 0 0 6.07 12.115l.039.028.087.063q.241 1.784.412 3.576h.601c.166-1.491.39-2.796.683-4.076l-.046.239c.396-.275.742-.56 1.065-.869l-.003.003a14.14 14.14 0 0 0 4.549-10.404l-.001-.182v.009a16.3 16.3 0 0 0-.261-2.871l.015.099z"/>
    </symbol>

    <symbol id="aws" viewBox="0 0 16 16">
        <path d="M4.51 7.687q0 .297.058.475.061.175.17.384a.23.23 0 0 1 .037.123q.001.08-.1.16l-.336.224a.26.26 0 0 1-.138.048q-.08-.001-.16-.074a1.7 1.7 0 0 1-.192-.251 4 4 0 0 1-.164-.315q-.623.737-1.565.737-.672 0-1.064-.385-.393-.384-.394-1.025-.001-.682.484-1.1c.325-.278.756-.416 1.304-.416q.27.002.564.042c.197.027.4.07.612.118v-.39q-.001-.608-.25-.854-.254-.248-.868-.246-.279-.001-.574.07a4 4 0 0 0-.575.181 2 2 0 0 1-.186.07.3.3 0 0 1-.085.016q-.112.001-.112-.166v-.262c0-.085.01-.15.037-.186a.4.4 0 0 1 .15-.113q.278-.144.67-.24.39-.103.83-.101.948 0 1.394.432.44.432.442 1.314v1.73h.01zm-2.161.811q.261 0 .548-.096c.192-.064.362-.182.505-.342a.85.85 0 0 0 .181-.341c.032-.129.054-.283.054-.465V7.03a4 4 0 0 0-.49-.09 4 4 0 0 0-.5-.033c-.357 0-.617.07-.793.214q-.262.215-.26.614-.002.374.196.566.192.198.559.197m4.273.577c-.096 0-.16-.016-.202-.054-.043-.032-.08-.106-.112-.208l-1.25-4.127a1 1 0 0 1-.048-.214c0-.085.042-.133.127-.133h.522q.15-.001.207.053c.043.032.075.107.107.208l.894 3.535.83-3.535q.038-.16.101-.208a.37.37 0 0 1 .213-.053h.426q.15-.001.212.053c.043.032.08.107.102.208l.84 3.578.92-3.578a.46.46 0 0 1 .107-.208.35.35 0 0 1 .208-.053h.495c.085 0 .133.043.133.133q-.002.04-.01.086a1 1 0 0 1-.038.133l-1.283 4.127q-.047.16-.111.209a.34.34 0 0 1-.203.053h-.457q-.15.001-.213-.053c-.043-.038-.08-.107-.101-.214L8.213 5.37l-.82 3.439q-.038.159-.1.213c-.043.038-.118.054-.213.054h-.458zm6.838.144a3.5 3.5 0 0 1-.82-.096c-.266-.064-.473-.134-.612-.214-.085-.048-.143-.101-.165-.15a.4.4 0 0 1-.031-.149v-.272q.001-.167.122-.166a.3.3 0 0 1 .096.016c.032.011.08.032.133.054.18.08.378.144.585.187.213.042.42.064.633.064q.505 0 .777-.176a.57.57 0 0 0 .277-.508.52.52 0 0 0-.144-.373q-.144-.152-.537-.278l-.772-.24c-.388-.123-.676-.305-.851-.545a1.27 1.27 0 0 1-.266-.774q0-.336.143-.593c.096-.17.224-.32.384-.438a1.7 1.7 0 0 1 .553-.277c.213-.064.436-.091.67-.091.118 0 .24.005.357.021a3.4 3.4 0 0 1 .649.145q.143.048.224.096a.5.5 0 0 1 .16.133.3.3 0 0 1 .047.176v.251q-.001.17-.122.171a.6.6 0 0 1-.202-.064 2.4 2.4 0 0 0-1.022-.208c-.303 0-.543.048-.708.15q-.249.148-.25.475 0 .225.16.379c.106.101.303.202.585.293l.756.24q.576.184.825.513.246.33.244.748 0 .345-.138.619a1.4 1.4 0 0 1-.388.47q-.247.197-.591.299a2.5 2.5 0 0 1-.761.112"/>
        <path fill-rule="evenodd" d="M14.465 11.813c-1.75 1.297-4.294 1.986-6.481 1.986-3.065 0-5.827-1.137-7.913-3.027-.165-.15-.016-.353.18-.235 2.257 1.313 5.04 2.109 7.92 2.109 1.941 0 4.075-.406 6.039-1.239.293-.133.543.192.255.406" clip-rule="evenodd"/>
        <path fill-rule="evenodd" d="M15.194 10.98c-.223-.287-1.479-.138-2.048-.069-.17.022-.197-.128-.043-.24 1-.705 2.645-.502 2.836-.267.192.24-.053 1.89-.99 2.68-.143.123-.281.06-.217-.1.212-.53.686-1.72.462-2.003z" clip-rule="evenodd"/>
    </symbol>

    <symbol id="azure" viewBox="0 0 16 16">
        <path d="m7.47 12.412 3.348-.592.031-.007-1.722-2.049a292 292 0 0 1-1.723-2.058c0-.01 1.779-4.909 1.789-4.926a789 789 0 0 1 2.934 5.066l2.95 5.115.023.039-10.948-.001zM.9 11.788c0-.003.811-1.412 1.803-3.131L4.507 5.53l2.102-1.764C7.765 2.797 8.714 2 8.717 2a.4.4 0 0 1-.033.085L6.4 6.981l-2.24 4.808-1.63.002c-.897.001-1.63 0-1.63-.003"/>
    </symbol>

    <symbol id="mail" viewBox="0 0 24 24">
        <path d="M3.847 17.86c.197.096.419.15.653.15h15c.234 0 .456-.054.653-.15l-5.908-5.56-1.927 1.586a.5.5 0 0 1-.636 0l-1.927-1.587zm-.704-.71.014-.014 5.82-5.478-5.795-4.772-.036-.033A1.5 1.5 0 0 0 3 7.5v9.01c0 .229.051.446.143.64m17.714 0a1.5 1.5 0 0 0 .143-.64V7.5c0-.232-.052-.45-.146-.647l-.036.033-5.795 4.772 5.82 5.478zm-.713-11.005A1.5 1.5 0 0 0 19.5 6h-15c-.23 0-.45.052-.644.145L12 12.852zM4.5 5h15A2.5 2.5 0 0 1 22 7.5v9.01a2.5 2.5 0 0 1-2.5 2.5h-15a2.5 2.5 0 0 1-2.5-2.5V7.5A2.5 2.5 0 0 1 4.5 5"/>
    </symbol>
</svg>
